<svg width="109" height="30" viewBox="0 0 109 30" fill="none" xmlns="http://www.w3.org/2000/svg">
<rect width="30" height="30" fill="#E43737"/>
<rect x="4" y="6" width="4" height="17" fill="white"/>
<rect x="25" y="12.5" width="4" height="17" transform="rotate(90 25 12.5)" fill="white"/>
<path d="M48.384 9.88V11.368H45.424V21H43.6V11.368H40.624V9.88H48.384ZM51.1593 11.016C50.8286 11.016 50.5513 10.904 50.3273 10.68C50.1033 10.456 49.9913 10.1787 49.9913 9.848C49.9913 9.51733 50.1033 9.24 50.3273 9.016C50.5513 8.792 50.8286 8.68 51.1593 8.68C51.4793 8.68 51.7513 8.792 51.9753 9.016C52.1993 9.24 52.3113 9.51733 52.3113 9.848C52.3113 10.1787 52.1993 10.456 51.9753 10.68C51.7513 10.904 51.4793 11.016 51.1593 11.016ZM52.0553 12.184V21H50.2313V12.184H52.0553ZM56.578 13.672V18.552C56.578 18.8827 56.6527 19.1227 56.802 19.272C56.962 19.4107 57.2287 19.48 57.602 19.48H58.722V21H57.282C56.4607 21 55.8313 20.808 55.394 20.424C54.9567 20.04 54.738 19.416 54.738 18.552V13.672H53.698V12.184H54.738V9.992H56.578V12.184H58.722V13.672H56.578ZM62.2271 13.496C62.5365 13.0693 62.9578 12.7227 63.4911 12.456C64.0351 12.1787 64.6378 12.04 65.2991 12.04C66.0778 12.04 66.7818 12.2267 67.4111 12.6C68.0405 12.9733 68.5365 13.5067 68.8991 14.2C69.2618 14.8827 69.4431 15.6667 69.4431 16.552C69.4431 17.4373 69.2618 18.232 68.8991 18.936C68.5365 19.6293 68.0351 20.1733 67.3951 20.568C66.7658 20.952 66.0671 21.144 65.2991 21.144C64.6165 21.144 64.0085 21.0107 63.4751 20.744C62.9525 20.4773 62.5365 20.136 62.2271 19.72V21H60.4031V9.16H62.2271V13.496ZM67.5871 16.552C67.5871 15.944 67.4591 15.4213 67.2031 14.984C66.9578 14.536 66.6271 14.2 66.2111 13.976C65.8058 13.7413 65.3685 13.624 64.8991 13.624C64.4405 13.624 64.0031 13.7413 63.5871 13.976C63.1818 14.2107 62.8511 14.552 62.5951 15C62.3498 15.448 62.2271 15.976 62.2271 16.584C62.2271 17.192 62.3498 17.7253 62.5951 18.184C62.8511 18.632 63.1818 18.9733 63.5871 19.208C64.0031 19.4427 64.4405 19.56 64.8991 19.56C65.3685 19.56 65.8058 19.4427 66.2111 19.208C66.6271 18.9627 66.9578 18.6107 67.2031 18.152C67.4591 17.6933 67.5871 17.16 67.5871 16.552ZM75.0709 21.144C74.2389 21.144 73.4869 20.9573 72.8149 20.584C72.1429 20.2 71.6149 19.6667 71.2309 18.984C70.8469 18.2907 70.6549 17.4907 70.6549 16.584C70.6549 15.688 70.8522 14.8933 71.2469 14.2C71.6415 13.5067 72.1802 12.9733 72.8629 12.6C73.5455 12.2267 74.3082 12.04 75.1509 12.04C75.9935 12.04 76.7562 12.2267 77.4389 12.6C78.1215 12.9733 78.6602 13.5067 79.0549 14.2C79.4495 14.8933 79.6469 15.688 79.6469 16.584C79.6469 17.48 79.4442 18.2747 79.0389 18.968C78.6335 19.6613 78.0789 20.2 77.3749 20.584C76.6815 20.9573 75.9135 21.144 75.0709 21.144ZM75.0709 19.56C75.5402 19.56 75.9775 19.448 76.3829 19.224C76.7989 19 77.1349 18.664 77.3909 18.216C77.6469 17.768 77.7749 17.224 77.7749 16.584C77.7749 15.944 77.6522 15.4053 77.4069 14.968C77.1615 14.52 76.8362 14.184 76.4309 13.96C76.0255 13.736 75.5882 13.624 75.1189 13.624C74.6495 13.624 74.2122 13.736 73.8069 13.96C73.4122 14.184 73.0975 14.52 72.8629 14.968C72.6282 15.4053 72.5109 15.944 72.5109 16.584C72.5109 17.5333 72.7509 18.2693 73.2309 18.792C73.7215 19.304 74.3349 19.56 75.0709 19.56ZM80.842 16.552C80.842 15.6667 81.0233 14.8827 81.386 14.2C81.7593 13.5173 82.2607 12.9893 82.89 12.616C83.53 12.232 84.234 12.04 85.002 12.04C85.6953 12.04 86.298 12.1787 86.81 12.456C87.3327 12.7227 87.7487 13.0587 88.058 13.464V12.184H89.898V21H88.058V19.688C87.7487 20.104 87.3273 20.4507 86.794 20.728C86.2607 21.0053 85.6527 21.144 84.97 21.144C84.2127 21.144 83.5193 20.952 82.89 20.568C82.2607 20.1733 81.7593 19.6293 81.386 18.936C81.0233 18.232 80.842 17.4373 80.842 16.552ZM88.058 16.584C88.058 15.976 87.93 15.448 87.674 15C87.4287 14.552 87.1033 14.2107 86.698 13.976C86.2927 13.7413 85.8553 13.624 85.386 13.624C84.9167 13.624 84.4793 13.7413 84.074 13.976C83.6687 14.2 83.338 14.536 83.082 14.984C82.8367 15.4213 82.714 15.944 82.714 16.552C82.714 17.16 82.8367 17.6933 83.082 18.152C83.338 18.6107 83.6687 18.9627 84.074 19.208C84.49 19.4427 84.9273 19.56 85.386 19.56C85.8553 19.56 86.2927 19.4427 86.698 19.208C87.1033 18.9733 87.4287 18.632 87.674 18.184C87.93 17.7253 88.058 17.192 88.058 16.584ZM94.1178 13.464C94.3844 13.016 94.7364 12.6693 95.1738 12.424C95.6218 12.168 96.1498 12.04 96.7578 12.04V13.928H96.2938C95.5791 13.928 95.0351 14.1093 94.6618 14.472C94.2991 14.8347 94.1178 15.464 94.1178 16.36V21H92.2938V12.184H94.1178V13.464ZM97.8264 16.552C97.8264 15.6667 98.0077 14.8827 98.3704 14.2C98.7437 13.5173 99.245 12.9893 99.8744 12.616C100.514 12.232 101.224 12.04 102.002 12.04C102.578 12.04 103.144 12.168 103.698 12.424C104.264 12.6693 104.712 13 105.042 13.416V9.16H106.882V21H105.042V19.672C104.744 20.0987 104.328 20.4507 103.794 20.728C103.272 21.0053 102.669 21.144 101.986 21.144C101.218 21.144 100.514 20.952 99.8744 20.568C99.245 20.1733 98.7437 19.6293 98.3704 18.936C98.0077 18.232 97.8264 17.4373 97.8264 16.552ZM105.042 16.584C105.042 15.976 104.914 15.448 104.658 15C104.413 14.552 104.088 14.2107 103.682 13.976C103.277 13.7413 102.84 13.624 102.37 13.624C101.901 13.624 101.464 13.7413 101.058 13.976C100.653 14.2 100.322 14.536 100.066 14.984C99.821 15.4213 99.6984 15.944 99.6984 16.552C99.6984 17.16 99.821 17.6933 100.066 18.152C100.322 18.6107 100.653 18.9627 101.058 19.208C101.474 19.4427 101.912 19.56 102.37 19.56C102.84 19.56 103.277 19.4427 103.682 19.208C104.088 18.9733 104.413 18.632 104.658 18.184C104.914 17.7253 105.042 17.192 105.042 16.584Z" fill="black"/>
</svg>
